# xmcd CD database file
#
# Track frame offsets:
#	150
#	11437
#	34747
#	56105
#	63994
#	80857
#	98219
#	123182
#
# Disc length: 1918 seconds
#
# Revision: 0
# Processed by: cddbd v1.5.2PL0 Copyright (c) Steve Scherf et al.
# Submitted via: CDex 1.51
#
DISCID=64077c08
DTITLE=White Birds and Lemons - Who Says You're Free?
DYEAR=2007
DGENRE=Blues
TTITLE0=Who Says You're Free?
TTITLE1=Bed Linen Colours
TTITLE2=Starry Eyes
TTITLE3=Third Degree
TTITLE4=Secret Drug
TTITLE5=Charlie
TTITLE6=Stella
TTITLE7=Paper Soldiers
EXTD=YEAR: 2007
EXTT0=
EXTT1=
EXTT2=
EXTT3=
EXTT4=
EXTT5=
EXTT6=
EXTT7=
PLAYORDER=
